<svg width="113" height="19" viewBox="0 0 113 19" fill="none" xmlns="http://www.w3.org/2000/svg">
<g clip-path="url(#clip0_213_1458)">
<path d="M8.13607 18.1921C6.66407 18.1921 5.36807 17.9041 4.24807 17.3281C3.14407 16.7521 2.28807 15.9681 1.68007 14.9761C1.07207 13.9681 0.768066 12.8241 0.768066 11.5441C0.768066 10.2481 1.06407 9.10406 1.65607 8.11206C2.26407 7.10406 3.08807 6.32006 4.12807 5.76006C5.16807 5.18406 6.34407 4.89606 7.65607 4.89606C8.92007 4.89606 10.0561 5.16806 11.0641 5.71206C12.0881 6.24006 12.8961 7.00806 13.4881 8.01606C14.0801 9.00806 14.3761 10.2001 14.3761 11.5921C14.3761 11.7361 14.3681 11.9041 14.3521 12.0961C14.3361 12.2721 14.3201 12.4401 14.3041 12.6001H3.81607V10.4161H12.3361L10.8961 11.0641C10.8961 10.3921 10.7601 9.80806 10.4881 9.31206C10.2161 8.81606 9.84007 8.43206 9.36007 8.16006C8.88007 7.87206 8.32007 7.72806 7.68007 7.72806C7.04007 7.72806 6.47207 7.87206 5.97607 8.16006C5.49607 8.43206 5.12007 8.82406 4.84807 9.33606C4.57607 9.83206 4.44007 10.4241 4.44007 11.1121V11.6881C4.44007 12.3921 4.59207 13.0161 4.89607 13.5601C5.21607 14.0881 5.65607 14.4961 6.21607 14.7841C6.79207 15.0561 7.46407 15.1921 8.23207 15.1921C8.92007 15.1921 9.52007 15.0881 10.0321 14.8801C10.5601 14.6721 11.0401 14.3601 11.4721 13.9441L13.4641 16.1041C12.8721 16.7761 12.1281 17.2961 11.2321 17.6641C10.3361 18.0161 9.30407 18.1921 8.13607 18.1921ZM15.2367 18.0001L21.0207 10.4161L20.9487 12.4801L15.4047 5.08806H19.6047L23.1087 9.91206L21.5247 9.96006L25.1487 5.08806H29.1327L23.5647 12.4081V10.3921L29.3247 18.0001H25.0767L21.4047 12.8641L22.9647 13.0801L19.3167 18.0001H15.2367ZM36.4222 18.1921C34.9022 18.1921 33.7182 17.8081 32.8702 17.0401C32.0222 16.2561 31.5982 15.0961 31.5982 13.5601V2.23206H35.3422V13.5121C35.3422 14.0561 35.4862 14.4801 35.7742 14.7841C36.0622 15.0721 36.4542 15.2161 36.9502 15.2161C37.5422 15.2161 38.0462 15.0561 38.4622 14.7361L39.4702 17.3761C39.0862 17.6481 38.6222 17.8561 38.0782 18.0001C37.5502 18.1281 36.9982 18.1921 36.4222 18.1921ZM29.6062 8.25605V5.37606H38.5582V8.25605H29.6062ZM41.5719 18.0001V5.08806H45.1479V8.73606L44.6439 7.68006C45.0279 6.76806 45.6439 6.08006 46.4919 5.61606C47.3399 5.13606 48.3719 4.89606 49.5879 4.89606V8.35206C49.4279 8.33606 49.2839 8.32806 49.1559 8.32806C49.0279 8.31206 48.8919 8.30406 48.7479 8.30406C47.7239 8.30406 46.8919 8.60006 46.2519 9.19206C45.6279 9.76806 45.3159 10.6721 45.3159 11.9041V18.0001H41.5719ZM58.8903 18.0001V15.4801L58.6503 14.9281V10.4161C58.6503 9.61606 58.4023 8.99205 57.9063 8.54405C57.4263 8.09605 56.6823 7.87206 55.6743 7.87206C54.9863 7.87206 54.3063 7.98406 53.6343 8.20806C52.9783 8.41606 52.4183 8.70405 51.9543 9.07205L50.6103 6.45606C51.3143 5.96006 52.1623 5.57606 53.1543 5.30406C54.1463 5.03206 55.1543 4.89606 56.1783 4.89606C58.1463 4.89606 59.6743 5.36006 60.7623 6.28806C61.8503 7.21606 62.3943 8.66406 62.3943 10.6321V18.0001H58.8903ZM54.9543 18.1921C53.9463 18.1921 53.0823 18.0241 52.3623 17.6881C51.6423 17.3361 51.0903 16.8641 50.7063 16.2721C50.3223 15.6801 50.1303 15.0161 50.1303 14.2801C50.1303 13.5121 50.3143 12.8401 50.6823 12.2641C51.0663 11.6881 51.6663 11.2401 52.4823 10.9201C53.2983 10.5841 54.3623 10.4161 55.6743 10.4161H59.1063V12.6001H56.0823C55.2023 12.6001 54.5943 12.7441 54.2583 13.0321C53.9383 13.3201 53.7783 13.6801 53.7783 14.1121C53.7783 14.5921 53.9623 14.9761 54.3303 15.2641C54.7143 15.5361 55.2343 15.6721 55.8903 15.6721C56.5143 15.6721 57.0743 15.5281 57.5703 15.2401C58.0663 14.9361 58.4263 14.4961 58.6503 13.9201L59.2263 15.6481C58.9543 16.4801 58.4583 17.1121 57.7383 17.5441C57.0183 17.9761 56.0903 18.1921 54.9543 18.1921Z" fill="#222222"/>
<path d="M70.1267 18.192C69.0227 18.192 67.9587 18.064 66.9347 17.808C65.9267 17.536 65.1267 17.2 64.5347 16.8L65.7827 14.112C66.3747 14.48 67.0707 14.784 67.8707 15.024C68.6867 15.248 69.4867 15.36 70.2707 15.36C71.1347 15.36 71.7427 15.256 72.0947 15.048C72.4627 14.84 72.6467 14.552 72.6467 14.184C72.6467 13.88 72.5027 13.656 72.2147 13.512C71.9427 13.352 71.5747 13.232 71.1107 13.152C70.6467 13.072 70.1347 12.992 69.5747 12.912C69.0307 12.832 68.4787 12.728 67.9187 12.6C67.3587 12.456 66.8467 12.248 66.3827 11.976C65.9187 11.704 65.5427 11.336 65.2547 10.872C64.9827 10.408 64.8467 9.80802 64.8467 9.07202C64.8467 8.25602 65.0787 7.53602 65.5427 6.91202C66.0227 6.28802 66.7107 5.80002 67.6067 5.44802C68.5027 5.08002 69.5747 4.89602 70.8227 4.89602C71.7027 4.89602 72.5987 4.99202 73.5107 5.18402C74.4227 5.37602 75.1827 5.65602 75.7907 6.02402L74.5427 8.68802C73.9187 8.32002 73.2867 8.07202 72.6467 7.94402C72.0227 7.80002 71.4147 7.72802 70.8227 7.72802C69.9907 7.72802 69.3827 7.84002 68.9987 8.06402C68.6147 8.28802 68.4227 8.57602 68.4227 8.92802C68.4227 9.24802 68.5587 9.48802 68.8307 9.64802C69.1187 9.80802 69.4947 9.93602 69.9587 10.032C70.4227 10.128 70.9267 10.216 71.4707 10.296C72.0307 10.36 72.5907 10.464 73.1507 10.608C73.7107 10.752 74.2147 10.96 74.6627 11.232C75.1267 11.488 75.5027 11.848 75.7907 12.312C76.0787 12.76 76.2227 13.352 76.2227 14.088C76.2227 14.888 75.9827 15.6 75.5027 16.224C75.0227 16.832 74.3267 17.312 73.4147 17.664C72.5187 18.016 71.4227 18.192 70.1267 18.192ZM84.7727 18.192C83.3807 18.192 82.1407 17.912 81.0527 17.352C79.9647 16.776 79.1087 15.984 78.4847 14.976C77.8767 13.968 77.5727 12.824 77.5727 11.544C77.5727 10.248 77.8767 9.10402 78.4847 8.11202C79.1087 7.10402 79.9647 6.32002 81.0527 5.76002C82.1407 5.18402 83.3807 4.89602 84.7727 4.89602C86.1327 4.89602 87.3167 5.18402 88.3247 5.76002C89.3327 6.32002 90.0767 7.12802 90.5567 8.18402L87.6527 9.74402C87.3167 9.13602 86.8927 8.68802 86.3807 8.40002C85.8847 8.11202 85.3407 7.96802 84.7487 7.96802C84.1087 7.96802 83.5327 8.11202 83.0207 8.40002C82.5087 8.68802 82.1007 9.09602 81.7967 9.62402C81.5087 10.152 81.3647 10.792 81.3647 11.544C81.3647 12.296 81.5087 12.936 81.7967 13.464C82.1007 13.992 82.5087 14.4 83.0207 14.688C83.5327 14.976 84.1087 15.12 84.7487 15.12C85.3407 15.12 85.8847 14.984 86.3807 14.712C86.8927 14.424 87.3167 13.968 87.6527 13.344L90.5567 14.928C90.0767 15.968 89.3327 16.776 88.3247 17.352C87.3167 17.912 86.1327 18.192 84.7727 18.192ZM100.49 4.89602C101.514 4.89602 102.426 5.10402 103.226 5.52002C104.042 5.92002 104.682 6.54402 105.146 7.39202C105.61 8.22402 105.842 9.29602 105.842 10.608V18H102.098V11.184C102.098 10.144 101.866 9.37602 101.402 8.88002C100.954 8.38402 100.314 8.13602 99.4821 8.13602C98.8901 8.13602 98.3541 8.26402 97.8741 8.52002C97.4101 8.76002 97.0421 9.13602 96.7701 9.64802C96.5141 10.16 96.3861 10.816 96.3861 11.616V18H92.6421V0.192017H96.3861V8.66402L95.5461 7.58402C96.0101 6.72002 96.6741 6.05602 97.5381 5.59202C98.4021 5.12802 99.3861 4.89602 100.49 4.89602ZM110.652 18.192C110.012 18.192 109.46 17.976 108.996 17.544C108.548 17.096 108.324 16.528 108.324 15.84C108.324 15.152 108.548 14.6 108.996 14.184C109.46 13.752 110.012 13.536 110.652 13.536C111.308 13.536 111.86 13.752 112.308 14.184C112.756 14.6 112.98 15.152 112.98 15.84C112.98 16.528 112.756 17.096 112.308 17.544C111.86 17.976 111.308 18.192 110.652 18.192Z" fill="url(#paint0_linear_213_1458)"/>
</g>
<defs>
<linearGradient id="paint0_linear_213_1458" x1="-3.76089e-05" y1="-5.99998" x2="115.978" y2="12.795" gradientUnits="userSpaceOnUse">
<stop stop-color="#4F9EFD"/>
<stop offset="1" stop-color="#1635D6"/>
</linearGradient>
<clipPath id="clip0_213_1458">
<rect width="113" height="19" fill="white"/>
</clipPath>
</defs>
</svg>
